<svg xmlns="http://www.w3.org/2000/svg" xmlns:xlink="http://www.w3.org/1999/xlink" width="1080" zoomAndPan="magnify" viewBox="0 0 810 809.999993" height="1080" preserveAspectRatio="xMidYMid meet" version="1.0"><defs><clipPath id="3efd1af044"><path d="M 101 194 L 378 194 L 378 616 L 101 616 Z M 101 194 " clip-rule="nonzero"/></clipPath><clipPath id="d3b574e2f2"><path d="M 158.496094 179.328125 L 392.21875 589.917969 L 320.621094 630.671875 L 86.902344 220.082031 Z M 158.496094 179.328125 " clip-rule="nonzero"/></clipPath><clipPath id="8bf058f911"><path d="M 371.839844 554.121094 C 383.09375 573.890625 376.191406 599.042969 356.417969 610.296875 C 336.648438 621.550781 311.5 614.644531 300.246094 594.875 L 107.277344 255.882812 C 96.023438 236.109375 102.929688 210.960938 122.699219 199.707031 C 142.46875 188.453125 167.621094 195.355469 178.875 215.125 Z M 371.839844 554.121094 " clip-rule="nonzero"/></clipPath><clipPath id="d4b3b14f5a"><path d="M 432 194 L 709 194 L 709 616 L 432 616 Z M 432 194 " clip-rule="nonzero"/></clipPath><clipPath id="2a6d3ab085"><path d="M 723.082031 220.167969 L 489.203125 630.667969 L 417.621094 589.886719 L 651.5 179.386719 Z M 723.082031 220.167969 " clip-rule="nonzero"/></clipPath><clipPath id="4602a0f1e3"><path d="M 509.59375 594.878906 C 498.332031 614.644531 473.179688 621.539062 453.414062 610.277344 C 433.644531 599.015625 426.753906 573.863281 438.015625 554.09375 L 631.109375 215.175781 C 642.371094 195.410156 667.523438 188.515625 687.292969 199.777344 C 707.058594 211.039062 713.953125 236.191406 702.691406 255.957031 Z M 509.59375 594.878906 " clip-rule="nonzero"/></clipPath><clipPath id="29205b47f9"><path d="M 355 400 L 515 400 L 515 616 L 355 616 Z M 355 400 " clip-rule="nonzero"/></clipPath><clipPath id="a4a1f86256"><path d="M 412.058594 385.882812 L 529.097656 589.636719 L 457.664062 630.671875 L 340.621094 426.917969 Z M 412.058594 385.882812 " clip-rule="nonzero"/></clipPath><clipPath id="687e1a3e15"><path d="M 508.582031 553.917969 C 519.910156 573.644531 513.105469 598.824219 493.378906 610.152344 C 473.652344 621.484375 448.476562 614.679688 437.144531 594.953125 L 361.136719 462.632812 C 349.808594 442.90625 356.613281 417.730469 376.339844 406.398438 C 396.066406 395.070312 421.242188 401.875 432.574219 421.601562 Z M 508.582031 553.917969 " clip-rule="nonzero"/></clipPath><clipPath id="85a70e6b32"><path d="M 301 194 L 447 194 L 447 387 L 301 387 Z M 301 194 " clip-rule="nonzero"/></clipPath><clipPath id="804e9698f7"><path d="M 461.601562 220.101562 L 358.089844 401.785156 L 286.511719 361 L 390.023438 179.320312 Z M 461.601562 220.101562 " clip-rule="nonzero"/></clipPath><clipPath id="d3affeb724"><path d="M 378.480469 365.992188 C 367.21875 385.761719 342.066406 392.65625 322.300781 381.394531 C 302.535156 370.132812 295.640625 344.976562 306.902344 325.210938 L 369.632812 215.109375 C 380.894531 195.34375 406.046875 188.449219 425.8125 199.710938 C 445.578125 210.972656 452.472656 236.125 441.210938 255.894531 Z M 378.480469 365.992188 " clip-rule="nonzero"/></clipPath><clipPath id="08660f978b"><path d="M 245 194 L 336 194 L 336 292 L 245 292 Z M 245 194 " clip-rule="nonzero"/></clipPath><clipPath id="290a80cd10"><path d="M 350.800781 220.105469 L 301.613281 306.433594 L 230.035156 265.652344 L 279.21875 179.324219 Z M 350.800781 220.105469 " clip-rule="nonzero"/></clipPath><clipPath id="f43b6e0a08"><path d="M 322.003906 270.644531 C 310.742188 290.410156 285.589844 297.304688 265.824219 286.042969 C 246.058594 274.78125 239.164062 249.628906 250.425781 229.863281 L 258.828125 215.113281 C 270.089844 195.347656 295.242188 188.453125 315.011719 199.714844 C 334.777344 210.976562 341.671875 236.128906 330.410156 255.894531 Z M 322.003906 270.644531 " clip-rule="nonzero"/></clipPath></defs><g clip-path="url(#3efd1af044)"><g clip-path="url(#d3b574e2f2)"><g clip-path="url(#8bf058f911)"><path fill="#3464d4" d="M 158.496094 179.328125 L 392.21875 589.917969 L 320.621094 630.671875 L 86.902344 220.082031 Z M 158.496094 179.328125 " fill-opacity="1" fill-rule="nonzero"/></g></g></g><g clip-path="url(#d4b3b14f5a)"><g clip-path="url(#2a6d3ab085)"><g clip-path="url(#4602a0f1e3)"><path fill="#3464d4" d="M 723.082031 220.167969 L 489.203125 630.667969 L 417.621094 589.886719 L 651.5 179.386719 Z M 723.082031 220.167969 " fill-opacity="1" fill-rule="nonzero"/></g></g></g><g clip-path="url(#29205b47f9)"><g clip-path="url(#a4a1f86256)"><g clip-path="url(#687e1a3e15)"><path fill="#3464d4" d="M 412.058594 385.882812 L 529.097656 589.636719 L 457.664062 630.671875 L 340.621094 426.917969 Z M 412.058594 385.882812 " fill-opacity="1" fill-rule="nonzero"/></g></g></g><g clip-path="url(#85a70e6b32)"><g clip-path="url(#804e9698f7)"><g clip-path="url(#d3affeb724)"><path fill="#3464d4" d="M 461.601562 220.101562 L 358.089844 401.785156 L 286.511719 361 L 390.023438 179.320312 Z M 461.601562 220.101562 " fill-opacity="1" fill-rule="nonzero"/></g></g></g><g clip-path="url(#08660f978b)"><g clip-path="url(#290a80cd10)"><g clip-path="url(#f43b6e0a08)"><path fill="#3464d4" d="M 350.800781 220.105469 L 301.613281 306.433594 L 230.035156 265.652344 L 279.21875 179.324219 Z M 350.800781 220.105469 " fill-opacity="1" fill-rule="nonzero"/></g></g></g></svg>